<?xml version="1.0" encoding="utf-8" standalone="no"?>
<!DOCTYPE svg PUBLIC "-//W3C//DTD SVG 1.1//EN"
  "http://www.w3.org/Graphics/SVG/1.1/DTD/svg11.dtd">
<svg xmlns:xlink="http://www.w3.org/1999/xlink" width="460.8pt" height="345.6pt" viewBox="0 0 460.8 345.6" xmlns="http://www.w3.org/2000/svg" version="1.1">
 <metadata>
  <rdf:RDF xmlns:dc="http://purl.org/dc/elements/1.1/" xmlns:cc="http://creativecommons.org/ns#" xmlns:rdf="http://www.w3.org/1999/02/22-rdf-syntax-ns#">
   <cc:Work>
    <dc:type rdf:resource="http://purl.org/dc/dcmitype/StillImage"/>
    <dc:date>2024-05-02T15:31:37.944808</dc:date>
    <dc:format>image/svg+xml</dc:format>
    <dc:creator>
     <cc:Agent>
      <dc:title>Matplotlib v3.8.2, https://matplotlib.org/</dc:title>
     </cc:Agent>
    </dc:creator>
   </cc:Work>
  </rdf:RDF>
 </metadata>
 <defs>
  <style type="text/css">*{stroke-linejoin: round; stroke-linecap: butt}</style>
 </defs>
 <g id="figure_1">
  <g id="patch_1">
   <path d="M 0 345.6 
L 460.8 345.6 
L 460.8 0 
L 0 0 
z
" style="fill: #ffffff"/>
  </g>
  <g id="axes_1">
   <g id="patch_2">
    <path d="M 57.6 307.584 
L 414.72 307.584 
L 414.72 41.472 
L 57.6 41.472 
z
" style="fill: #ffffff"/>
   </g>
   <g id="matplotlib.axis_1">
    <g id="xtick_1">
     <g id="line2d_1">
      <defs>
       <path id="mf012b48754" d="M 0 0 
L 0 3.5 
" style="stroke: #000000; stroke-width: 0.8"/>
      </defs>
      <g>
       <use xlink:href="#mf012b48754" x="98.104642" y="307.584" style="stroke: #000000; stroke-width: 0.8"/>
      </g>
     </g>
     <g id="text_1">
      <!-- −1.0 -->
      <g transform="translate(85.963236 322.182437) scale(0.1 -0.1)">
       <defs>
        <path id="DejaVuSans-2212" d="M 678 2272 
L 4684 2272 
L 4684 1741 
L 678 1741 
L 678 2272 
z
" transform="scale(0.015625)"/>
        <path id="DejaVuSans-31" d="M 794 531 
L 1825 531 
L 1825 4091 
L 703 3866 
L 703 4441 
L 1819 4666 
L 2450 4666 
L 2450 531 
L 3481 531 
L 3481 0 
L 794 0 
L 794 531 
z
" transform="scale(0.015625)"/>
        <path id="DejaVuSans-2e" d="M 684 794 
L 1344 794 
L 1344 0 
L 684 0 
L 684 794 
z
" transform="scale(0.015625)"/>
        <path id="DejaVuSans-30" d="M 2034 4250 
Q 1547 4250 1301 3770 
Q 1056 3291 1056 2328 
Q 1056 1369 1301 889 
Q 1547 409 2034 409 
Q 2525 409 2770 889 
Q 3016 1369 3016 2328 
Q 3016 3291 2770 3770 
Q 2525 4250 2034 4250 
z
M 2034 4750 
Q 2819 4750 3233 4129 
Q 3647 3509 3647 2328 
Q 3647 1150 3233 529 
Q 2819 -91 2034 -91 
Q 1250 -91 836 529 
Q 422 1150 422 2328 
Q 422 3509 836 4129 
Q 1250 4750 2034 4750 
z
" transform="scale(0.015625)"/>
       </defs>
       <use xlink:href="#DejaVuSans-2212"/>
       <use xlink:href="#DejaVuSans-31" x="83.789062"/>
       <use xlink:href="#DejaVuSans-2e" x="147.412109"/>
       <use xlink:href="#DejaVuSans-30" x="179.199219"/>
      </g>
     </g>
    </g>
    <g id="xtick_2">
     <g id="line2d_2">
      <g>
       <use xlink:href="#mf012b48754" x="166.469021" y="307.584" style="stroke: #000000; stroke-width: 0.8"/>
      </g>
     </g>
     <g id="text_2">
      <!-- −0.5 -->
      <g transform="translate(154.327614 322.182437) scale(0.1 -0.1)">
       <defs>
        <path id="DejaVuSans-35" d="M 691 4666 
L 3169 4666 
L 3169 4134 
L 1269 4134 
L 1269 2991 
Q 1406 3038 1543 3061 
Q 1681 3084 1819 3084 
Q 2600 3084 3056 2656 
Q 3513 2228 3513 1497 
Q 3513 744 3044 326 
Q 2575 -91 1722 -91 
Q 1428 -91 1123 -41 
Q 819 9 494 109 
L 494 744 
Q 775 591 1075 516 
Q 1375 441 1709 441 
Q 2250 441 2565 725 
Q 2881 1009 2881 1497 
Q 2881 1984 2565 2268 
Q 2250 2553 1709 2553 
Q 1456 2553 1204 2497 
Q 953 2441 691 2322 
L 691 4666 
z
" transform="scale(0.015625)"/>
       </defs>
       <use xlink:href="#DejaVuSans-2212"/>
       <use xlink:href="#DejaVuSans-30" x="83.789062"/>
       <use xlink:href="#DejaVuSans-2e" x="147.412109"/>
       <use xlink:href="#DejaVuSans-35" x="179.199219"/>
      </g>
     </g>
    </g>
    <g id="xtick_3">
     <g id="line2d_3">
      <g>
       <use xlink:href="#mf012b48754" x="234.833399" y="307.584" style="stroke: #000000; stroke-width: 0.8"/>
      </g>
     </g>
     <g id="text_3">
      <!-- 0.0 -->
      <g transform="translate(226.881836 322.182437) scale(0.1 -0.1)">
       <use xlink:href="#DejaVuSans-30"/>
       <use xlink:href="#DejaVuSans-2e" x="63.623047"/>
       <use xlink:href="#DejaVuSans-30" x="95.410156"/>
      </g>
     </g>
    </g>
    <g id="xtick_4">
     <g id="line2d_4">
      <g>
       <use xlink:href="#mf012b48754" x="303.197777" y="307.584" style="stroke: #000000; stroke-width: 0.8"/>
      </g>
     </g>
     <g id="text_4">
      <!-- 0.5 -->
      <g transform="translate(295.246214 322.182437) scale(0.1 -0.1)">
       <use xlink:href="#DejaVuSans-30"/>
       <use xlink:href="#DejaVuSans-2e" x="63.623047"/>
       <use xlink:href="#DejaVuSans-35" x="95.410156"/>
      </g>
     </g>
    </g>
    <g id="xtick_5">
     <g id="line2d_5">
      <g>
       <use xlink:href="#mf012b48754" x="371.562155" y="307.584" style="stroke: #000000; stroke-width: 0.8"/>
      </g>
     </g>
     <g id="text_5">
      <!-- 1.0 -->
      <g transform="translate(363.610592 322.182437) scale(0.1 -0.1)">
       <use xlink:href="#DejaVuSans-31"/>
       <use xlink:href="#DejaVuSans-2e" x="63.623047"/>
       <use xlink:href="#DejaVuSans-30" x="95.410156"/>
      </g>
     </g>
    </g>
   </g>
   <g id="matplotlib.axis_2">
    <g id="ytick_1">
     <g id="line2d_6">
      <defs>
       <path id="m2dea4ea77a" d="M 0 0 
L -3.5 0 
" style="stroke: #000000; stroke-width: 0.8"/>
      </defs>
      <g>
       <use xlink:href="#m2dea4ea77a" x="57.6" y="304.609665" style="stroke: #000000; stroke-width: 0.8"/>
      </g>
     </g>
     <g id="text_6">
      <!-- −1.0 -->
      <g transform="translate(26.317187 308.408884) scale(0.1 -0.1)">
       <use xlink:href="#DejaVuSans-2212"/>
       <use xlink:href="#DejaVuSans-31" x="83.789062"/>
       <use xlink:href="#DejaVuSans-2e" x="147.412109"/>
       <use xlink:href="#DejaVuSans-30" x="179.199219"/>
      </g>
     </g>
    </g>
    <g id="ytick_2">
     <g id="line2d_7">
      <g>
       <use xlink:href="#m2dea4ea77a" x="57.6" y="247.371079" style="stroke: #000000; stroke-width: 0.8"/>
      </g>
     </g>
     <g id="text_7">
      <!-- −0.5 -->
      <g transform="translate(26.317187 251.170298) scale(0.1 -0.1)">
       <use xlink:href="#DejaVuSans-2212"/>
       <use xlink:href="#DejaVuSans-30" x="83.789062"/>
       <use xlink:href="#DejaVuSans-2e" x="147.412109"/>
       <use xlink:href="#DejaVuSans-35" x="179.199219"/>
      </g>
     </g>
    </g>
    <g id="ytick_3">
     <g id="line2d_8">
      <g>
       <use xlink:href="#m2dea4ea77a" x="57.6" y="190.132493" style="stroke: #000000; stroke-width: 0.8"/>
      </g>
     </g>
     <g id="text_8">
      <!-- 0.0 -->
      <g transform="translate(34.696875 193.931712) scale(0.1 -0.1)">
       <use xlink:href="#DejaVuSans-30"/>
       <use xlink:href="#DejaVuSans-2e" x="63.623047"/>
       <use xlink:href="#DejaVuSans-30" x="95.410156"/>
      </g>
     </g>
    </g>
    <g id="ytick_4">
     <g id="line2d_9">
      <g>
       <use xlink:href="#m2dea4ea77a" x="57.6" y="132.893907" style="stroke: #000000; stroke-width: 0.8"/>
      </g>
     </g>
     <g id="text_9">
      <!-- 0.5 -->
      <g transform="translate(34.696875 136.693126) scale(0.1 -0.1)">
       <use xlink:href="#DejaVuSans-30"/>
       <use xlink:href="#DejaVuSans-2e" x="63.623047"/>
       <use xlink:href="#DejaVuSans-35" x="95.410156"/>
      </g>
     </g>
    </g>
    <g id="ytick_5">
     <g id="line2d_10">
      <g>
       <use xlink:href="#m2dea4ea77a" x="57.6" y="75.655321" style="stroke: #000000; stroke-width: 0.8"/>
      </g>
     </g>
     <g id="text_10">
      <!-- 1.0 -->
      <g transform="translate(34.696875 79.45454) scale(0.1 -0.1)">
       <use xlink:href="#DejaVuSans-31"/>
       <use xlink:href="#DejaVuSans-2e" x="63.623047"/>
       <use xlink:href="#DejaVuSans-30" x="95.410156"/>
      </g>
     </g>
    </g>
   </g>
   <g id="line2d_11">
    <path d="M 249.642249 76.328749 
L 258.113599 91.977429 
" clip-path="url(#p73d2aa7442)" style="fill: none; stroke: #9678b4; stroke-linecap: square"/>
   </g>
   <g id="line2d_12">
    <path d="M 371.211627 181.940554 
L 258.113599 91.977429 
" clip-path="url(#p73d2aa7442)" style="fill: none; stroke: #9678b4; stroke-linecap: square"/>
   </g>
   <g id="line2d_13">
    <path d="M 249.642249 76.328749 
L 371.211627 181.940554 
" clip-path="url(#p73d2aa7442)" style="fill: none; stroke: #9678b4; stroke-linecap: square"/>
   </g>
   <g id="line2d_14">
    <path d="M 204.518411 295.488 
L 176.141036 236.094237 
" clip-path="url(#p73d2aa7442)" style="fill: none; stroke: #9678b4; stroke-linecap: square"/>
   </g>
   <g id="line2d_15">
    <path d="M 100.666173 212.187644 
L 176.141036 236.094237 
" clip-path="url(#p73d2aa7442)" style="fill: none; stroke: #9678b4; stroke-linecap: square"/>
   </g>
   <g id="line2d_16">
    <path d="M 100.666173 212.187644 
L 204.518411 295.488 
" clip-path="url(#p73d2aa7442)" style="fill: none; stroke: #9678b4; stroke-linecap: square"/>
   </g>
   <g id="line2d_17">
    <path d="M 192.435412 129.03941 
L 258.113599 91.977429 
" clip-path="url(#p73d2aa7442)" style="fill: none; stroke: #9678b4; stroke-linecap: square"/>
   </g>
   <g id="line2d_18">
    <path d="M 229.20026 171.309904 
L 192.435412 129.03941 
" clip-path="url(#p73d2aa7442)" style="fill: none; stroke: #9678b4; stroke-linecap: square"/>
   </g>
   <g id="line2d_19">
    <path d="M 229.20026 171.309904 
L 258.113599 91.977429 
" clip-path="url(#p73d2aa7442)" style="fill: none; stroke: #9678b4; stroke-linecap: square"/>
   </g>
   <g id="line2d_20">
    <path d="M 157.944978 181.338249 
L 192.435412 129.03941 
" clip-path="url(#p73d2aa7442)" style="fill: none; stroke: #9678b4; stroke-linecap: square"/>
   </g>
   <g id="line2d_21">
    <path d="M 124.003876 124.787035 
L 192.435412 129.03941 
" clip-path="url(#p73d2aa7442)" style="fill: none; stroke: #9678b4; stroke-linecap: square"/>
   </g>
   <g id="line2d_22">
    <path d="M 124.003876 124.787035 
L 157.944978 181.338249 
" clip-path="url(#p73d2aa7442)" style="fill: none; stroke: #9678b4; stroke-linecap: square"/>
   </g>
   <g id="line2d_23">
    <path d="M 249.642249 76.328749 
L 192.435412 129.03941 
" clip-path="url(#p73d2aa7442)" style="fill: none; stroke: #9678b4; stroke-linecap: square"/>
   </g>
   <g id="line2d_24">
    <path d="M 249.642249 76.328749 
L 124.003876 124.787035 
" clip-path="url(#p73d2aa7442)" style="fill: none; stroke: #9678b4; stroke-linecap: square"/>
   </g>
   <g id="line2d_25">
    <path d="M 314.826083 201.234593 
L 258.113599 91.977429 
" clip-path="url(#p73d2aa7442)" style="fill: none; stroke: #9678b4; stroke-linecap: square"/>
   </g>
   <g id="line2d_26">
    <path d="M 371.211627 181.940554 
L 314.826083 201.234593 
" clip-path="url(#p73d2aa7442)" style="fill: none; stroke: #9678b4; stroke-linecap: square"/>
   </g>
   <g id="line2d_27">
    <path d="M 229.20026 171.309904 
L 314.826083 201.234593 
" clip-path="url(#p73d2aa7442)" style="fill: none; stroke: #9678b4; stroke-linecap: square"/>
   </g>
   <g id="line2d_28">
    <path d="M 157.944978 181.338249 
L 113.520008 139.254315 
" clip-path="url(#p73d2aa7442)" style="fill: none; stroke: #9678b4; stroke-linecap: square"/>
   </g>
   <g id="line2d_29">
    <path d="M 100.666173 212.187644 
L 113.520008 139.254315 
" clip-path="url(#p73d2aa7442)" style="fill: none; stroke: #9678b4; stroke-linecap: square"/>
   </g>
   <g id="line2d_30">
    <path d="M 100.666173 212.187644 
L 157.944978 181.338249 
" clip-path="url(#p73d2aa7442)" style="fill: none; stroke: #9678b4; stroke-linecap: square"/>
   </g>
   <g id="line2d_31">
    <path d="M 124.003876 124.787035 
L 113.520008 139.254315 
" clip-path="url(#p73d2aa7442)" style="fill: none; stroke: #9678b4; stroke-linecap: square"/>
   </g>
   <g id="line2d_32">
    <path d="M 368.899749 212.613541 
L 314.826083 201.234593 
" clip-path="url(#p73d2aa7442)" style="fill: none; stroke: #9678b4; stroke-linecap: square"/>
   </g>
   <g id="line2d_33">
    <path d="M 368.899749 212.613541 
L 371.211627 181.940554 
" clip-path="url(#p73d2aa7442)" style="fill: none; stroke: #9678b4; stroke-linecap: square"/>
   </g>
   <g id="line2d_34">
    <path d="M 240.701498 261.787611 
L 314.826083 201.234593 
" clip-path="url(#p73d2aa7442)" style="fill: none; stroke: #9678b4; stroke-linecap: square"/>
   </g>
   <g id="line2d_35">
    <path d="M 240.701498 261.787611 
L 229.20026 171.309904 
" clip-path="url(#p73d2aa7442)" style="fill: none; stroke: #9678b4; stroke-linecap: square"/>
   </g>
   <g id="line2d_36">
    <path d="M 240.701498 261.787611 
L 176.141036 236.094237 
" clip-path="url(#p73d2aa7442)" style="fill: none; stroke: #9678b4; stroke-linecap: square"/>
   </g>
   <g id="line2d_37">
    <path d="M 240.701498 261.787611 
L 204.518411 295.488 
" clip-path="url(#p73d2aa7442)" style="fill: none; stroke: #9678b4; stroke-linecap: square"/>
   </g>
   <g id="line2d_38">
    <path d="M 327.925056 273.978283 
L 240.701498 261.787611 
" clip-path="url(#p73d2aa7442)" style="fill: none; stroke: #9678b4; stroke-linecap: square"/>
   </g>
   <g id="line2d_39">
    <path d="M 327.925056 273.978283 
L 204.518411 295.488 
" clip-path="url(#p73d2aa7442)" style="fill: none; stroke: #9678b4; stroke-linecap: square"/>
   </g>
   <g id="line2d_40">
    <path d="M 327.925056 273.978283 
L 314.826083 201.234593 
" clip-path="url(#p73d2aa7442)" style="fill: none; stroke: #9678b4; stroke-linecap: square"/>
   </g>
   <g id="line2d_41">
    <path d="M 203.052531 177.706961 
L 186.438743 195.944547 
" clip-path="url(#p73d2aa7442)" style="fill: none; stroke: #9678b4; stroke-linecap: square"/>
   </g>
   <g id="line2d_42">
    <path d="M 203.052531 177.706961 
L 157.944978 181.338249 
" clip-path="url(#p73d2aa7442)" style="fill: none; stroke: #9678b4; stroke-linecap: square"/>
   </g>
   <g id="line2d_43">
    <path d="M 186.438743 195.944547 
L 157.944978 181.338249 
" clip-path="url(#p73d2aa7442)" style="fill: none; stroke: #9678b4; stroke-linecap: square"/>
   </g>
   <g id="line2d_44">
    <path d="M 203.052531 177.706961 
L 192.435412 129.03941 
" clip-path="url(#p73d2aa7442)" style="fill: none; stroke: #9678b4; stroke-linecap: square"/>
   </g>
   <g id="line2d_45">
    <path d="M 203.052531 177.706961 
L 229.20026 171.309904 
" clip-path="url(#p73d2aa7442)" style="fill: none; stroke: #9678b4; stroke-linecap: square"/>
   </g>
   <g id="line2d_46">
    <path d="M 186.438743 195.944547 
L 172.404107 204.745022 
" clip-path="url(#p73d2aa7442)" style="fill: none; stroke: #9678b4; stroke-linecap: square"/>
   </g>
   <g id="line2d_47">
    <path d="M 157.944978 181.338249 
L 172.404107 204.745022 
" clip-path="url(#p73d2aa7442)" style="fill: none; stroke: #9678b4; stroke-linecap: square"/>
   </g>
   <g id="line2d_48">
    <path d="M 172.404107 204.745022 
L 176.141036 236.094237 
" clip-path="url(#p73d2aa7442)" style="fill: none; stroke: #9678b4; stroke-linecap: square"/>
   </g>
   <g id="line2d_49">
    <path d="M 100.666173 212.187644 
L 172.404107 204.745022 
" clip-path="url(#p73d2aa7442)" style="fill: none; stroke: #9678b4; stroke-linecap: square"/>
   </g>
   <g id="line2d_50">
    <path d="M 330.556447 271.874943 
L 314.826083 201.234593 
" clip-path="url(#p73d2aa7442)" style="fill: none; stroke: #9678b4; stroke-linecap: square"/>
   </g>
   <g id="line2d_51">
    <path d="M 330.556447 271.874943 
L 327.925056 273.978283 
" clip-path="url(#p73d2aa7442)" style="fill: none; stroke: #9678b4; stroke-linecap: square"/>
   </g>
   <g id="line2d_52">
    <path d="M 330.556447 271.874943 
L 368.899749 212.613541 
" clip-path="url(#p73d2aa7442)" style="fill: none; stroke: #9678b4; stroke-linecap: square"/>
   </g>
   <g id="line2d_53">
    <path d="M 200.596271 200.525217 
L 240.701498 261.787611 
" clip-path="url(#p73d2aa7442)" style="fill: none; stroke: #9678b4; stroke-linecap: square"/>
   </g>
   <g id="line2d_54">
    <path d="M 200.596271 200.525217 
L 229.20026 171.309904 
" clip-path="url(#p73d2aa7442)" style="fill: none; stroke: #9678b4; stroke-linecap: square"/>
   </g>
   <g id="line2d_55">
    <path d="M 203.052531 177.706961 
L 200.596271 200.525217 
" clip-path="url(#p73d2aa7442)" style="fill: none; stroke: #9678b4; stroke-linecap: square"/>
   </g>
   <g id="line2d_56">
    <path d="M 186.438743 195.944547 
L 200.596271 200.525217 
" clip-path="url(#p73d2aa7442)" style="fill: none; stroke: #9678b4; stroke-linecap: square"/>
   </g>
   <g id="line2d_57">
    <path d="M 200.596271 200.525217 
L 176.141036 236.094237 
" clip-path="url(#p73d2aa7442)" style="fill: none; stroke: #9678b4; stroke-linecap: square"/>
   </g>
   <g id="line2d_58">
    <path d="M 200.596271 200.525217 
L 172.404107 204.745022 
" clip-path="url(#p73d2aa7442)" style="fill: none; stroke: #9678b4; stroke-linecap: square"/>
   </g>
   <g id="line2d_59">
    <path d="M 330.556447 271.874943 
L 349.701056 288.223433 
" clip-path="url(#p73d2aa7442)" style="fill: none; stroke: #85c27f; stroke-linecap: square"/>
   </g>
   <g id="line2d_60">
    <path d="M 368.899749 212.613541 
L 395.713019 217.109751 
" clip-path="url(#p73d2aa7442)" style="fill: none; stroke: #85c27f; stroke-linecap: square"/>
   </g>
   <g id="line2d_61">
    <path d="M 327.925056 273.978283 
L 346.543388 290.747442 
" clip-path="url(#p73d2aa7442)" style="fill: none; stroke: #85c27f; stroke-linecap: square"/>
   </g>
   <g id="line2d_62">
    <path d="M 100.666173 212.187644 
L 73.832727 216.598674 
" clip-path="url(#p73d2aa7442)" style="fill: none; stroke: #85c27f; stroke-linecap: square"/>
   </g>
   <g id="line2d_63">
    <path d="M 249.642249 76.328749 
L 252.604019 53.568 
" clip-path="url(#p73d2aa7442)" style="fill: none; stroke: #85c27f; stroke-linecap: square"/>
   </g>
   <g id="line2d_64">
    <path d="M 371.211627 181.940554 
L 398.487273 180.302166 
" clip-path="url(#p73d2aa7442)" style="fill: none; stroke: #85c27f; stroke-linecap: square"/>
   </g>
   <g id="line2d_65">
    <defs>
     <path id="m184aad4ea5" d="M 0 3 
C 0.795609 3 1.55874 2.683901 2.12132 2.12132 
C 2.683901 1.55874 3 0.795609 3 0 
C 3 -0.795609 2.683901 -1.55874 2.12132 -2.12132 
C 1.55874 -2.683901 0.795609 -3 0 -3 
C -0.795609 -3 -1.55874 -2.683901 -2.12132 -2.12132 
C -2.683901 -1.55874 -3 -0.795609 -3 0 
C -3 0.795609 -2.683901 1.55874 -2.12132 2.12132 
C -1.55874 2.683901 -0.795609 3 0 3 
z
" style="stroke: #9678b4"/>
    </defs>
    <g clip-path="url(#p73d2aa7442)">
     <use xlink:href="#m184aad4ea5" x="330.556447" y="271.874943" style="fill: #9678b4; stroke: #9678b4"/>
    </g>
   </g>
   <g id="line2d_66">
    <g clip-path="url(#p73d2aa7442)">
     <use xlink:href="#m184aad4ea5" x="368.899749" y="212.613541" style="fill: #9678b4; stroke: #9678b4"/>
    </g>
   </g>
   <g id="line2d_67">
    <g clip-path="url(#p73d2aa7442)">
     <use xlink:href="#m184aad4ea5" x="327.925056" y="273.978283" style="fill: #9678b4; stroke: #9678b4"/>
    </g>
   </g>
   <g id="line2d_68">
    <g clip-path="url(#p73d2aa7442)">
     <use xlink:href="#m184aad4ea5" x="100.666173" y="212.187644" style="fill: #9678b4; stroke: #9678b4"/>
    </g>
   </g>
   <g id="line2d_69">
    <g clip-path="url(#p73d2aa7442)">
     <use xlink:href="#m184aad4ea5" x="249.642249" y="76.328749" style="fill: #9678b4; stroke: #9678b4"/>
    </g>
   </g>
   <g id="line2d_70">
    <g clip-path="url(#p73d2aa7442)">
     <use xlink:href="#m184aad4ea5" x="371.211627" y="181.940554" style="fill: #9678b4; stroke: #9678b4"/>
    </g>
   </g>
   <g id="line2d_71">
    <g clip-path="url(#p73d2aa7442)">
     <use xlink:href="#m184aad4ea5" x="203.052531" y="177.706961" style="fill: #9678b4; stroke: #9678b4"/>
    </g>
   </g>
   <g id="line2d_72">
    <g clip-path="url(#p73d2aa7442)">
     <use xlink:href="#m184aad4ea5" x="124.003876" y="124.787035" style="fill: #9678b4; stroke: #9678b4"/>
    </g>
   </g>
   <g id="line2d_73">
    <g clip-path="url(#p73d2aa7442)">
     <use xlink:href="#m184aad4ea5" x="186.438743" y="195.944547" style="fill: #9678b4; stroke: #9678b4"/>
    </g>
   </g>
   <g id="line2d_74">
    <g clip-path="url(#p73d2aa7442)">
     <use xlink:href="#m184aad4ea5" x="157.944978" y="181.338249" style="fill: #9678b4; stroke: #9678b4"/>
    </g>
   </g>
   <g id="line2d_75">
    <g clip-path="url(#p73d2aa7442)">
     <use xlink:href="#m184aad4ea5" x="200.596271" y="200.525217" style="fill: #9678b4; stroke: #9678b4"/>
    </g>
   </g>
   <g id="line2d_76">
    <g clip-path="url(#p73d2aa7442)">
     <use xlink:href="#m184aad4ea5" x="172.404107" y="204.745022" style="fill: #9678b4; stroke: #9678b4"/>
    </g>
   </g>
   <g id="line2d_77">
    <g clip-path="url(#p73d2aa7442)">
     <use xlink:href="#m184aad4ea5" x="240.701498" y="261.787611" style="fill: #9678b4; stroke: #9678b4"/>
    </g>
   </g>
   <g id="line2d_78">
    <g clip-path="url(#p73d2aa7442)">
     <use xlink:href="#m184aad4ea5" x="204.518411" y="295.488" style="fill: #9678b4; stroke: #9678b4"/>
    </g>
   </g>
   <g id="line2d_79">
    <g clip-path="url(#p73d2aa7442)">
     <use xlink:href="#m184aad4ea5" x="176.141036" y="236.094237" style="fill: #9678b4; stroke: #9678b4"/>
    </g>
   </g>
   <g id="line2d_80">
    <g clip-path="url(#p73d2aa7442)">
     <use xlink:href="#m184aad4ea5" x="113.520008" y="139.254315" style="fill: #9678b4; stroke: #9678b4"/>
    </g>
   </g>
   <g id="line2d_81">
    <g clip-path="url(#p73d2aa7442)">
     <use xlink:href="#m184aad4ea5" x="229.20026" y="171.309904" style="fill: #9678b4; stroke: #9678b4"/>
    </g>
   </g>
   <g id="line2d_82">
    <g clip-path="url(#p73d2aa7442)">
     <use xlink:href="#m184aad4ea5" x="314.826083" y="201.234593" style="fill: #9678b4; stroke: #9678b4"/>
    </g>
   </g>
   <g id="line2d_83">
    <g clip-path="url(#p73d2aa7442)">
     <use xlink:href="#m184aad4ea5" x="192.435412" y="129.03941" style="fill: #9678b4; stroke: #9678b4"/>
    </g>
   </g>
   <g id="line2d_84">
    <g clip-path="url(#p73d2aa7442)">
     <use xlink:href="#m184aad4ea5" x="258.113599" y="91.977429" style="fill: #9678b4; stroke: #9678b4"/>
    </g>
   </g>
   <g id="line2d_85">
    <defs>
     <path id="m3e1d5a6368" d="M 0 3 
C 0.795609 3 1.55874 2.683901 2.12132 2.12132 
C 2.683901 1.55874 3 0.795609 3 0 
C 3 -0.795609 2.683901 -1.55874 2.12132 -2.12132 
C 1.55874 -2.683901 0.795609 -3 0 -3 
C -0.795609 -3 -1.55874 -2.683901 -2.12132 -2.12132 
C -2.683901 -1.55874 -3 -0.795609 -3 0 
C -3 0.795609 -2.683901 1.55874 -2.12132 2.12132 
C -1.55874 2.683901 -0.795609 3 0 3 
z
" style="stroke: #85c27f"/>
    </defs>
    <g clip-path="url(#p73d2aa7442)">
     <use xlink:href="#m3e1d5a6368" x="349.701056" y="288.223433" style="fill: #85c27f; stroke: #85c27f"/>
    </g>
   </g>
   <g id="line2d_86">
    <g clip-path="url(#p73d2aa7442)">
     <use xlink:href="#m3e1d5a6368" x="395.713019" y="217.109751" style="fill: #85c27f; stroke: #85c27f"/>
    </g>
   </g>
   <g id="line2d_87">
    <g clip-path="url(#p73d2aa7442)">
     <use xlink:href="#m3e1d5a6368" x="346.543388" y="290.747442" style="fill: #85c27f; stroke: #85c27f"/>
    </g>
   </g>
   <g id="line2d_88">
    <g clip-path="url(#p73d2aa7442)">
     <use xlink:href="#m3e1d5a6368" x="73.832727" y="216.598674" style="fill: #85c27f; stroke: #85c27f"/>
    </g>
   </g>
   <g id="line2d_89">
    <g clip-path="url(#p73d2aa7442)">
     <use xlink:href="#m3e1d5a6368" x="252.604019" y="53.568" style="fill: #85c27f; stroke: #85c27f"/>
    </g>
   </g>
   <g id="line2d_90">
    <g clip-path="url(#p73d2aa7442)">
     <use xlink:href="#m3e1d5a6368" x="398.487273" y="180.302166" style="fill: #85c27f; stroke: #85c27f"/>
    </g>
   </g>
   <g id="patch_3">
    <path d="M 57.6 307.584 
L 57.6 41.472 
" style="fill: none; stroke: #000000; stroke-width: 0.8; stroke-linejoin: miter; stroke-linecap: square"/>
   </g>
   <g id="patch_4">
    <path d="M 414.72 307.584 
L 414.72 41.472 
" style="fill: none; stroke: #000000; stroke-width: 0.8; stroke-linejoin: miter; stroke-linecap: square"/>
   </g>
   <g id="patch_5">
    <path d="M 57.6 307.584 
L 414.72 307.584 
" style="fill: none; stroke: #000000; stroke-width: 0.8; stroke-linejoin: miter; stroke-linecap: square"/>
   </g>
   <g id="patch_6">
    <path d="M 57.6 41.472 
L 414.72 41.472 
" style="fill: none; stroke: #000000; stroke-width: 0.8; stroke-linejoin: miter; stroke-linecap: square"/>
   </g>
  </g>
 </g>
 <defs>
  <clipPath id="p73d2aa7442">
   <rect x="57.6" y="41.472" width="357.12" height="266.112"/>
  </clipPath>
 </defs>
</svg>
