<?xml version="1.0" encoding="utf-8" standalone="no"?>
<!DOCTYPE svg PUBLIC "-//W3C//DTD SVG 1.1//EN"
  "http://www.w3.org/Graphics/SVG/1.1/DTD/svg11.dtd">
<svg xmlns:xlink="http://www.w3.org/1999/xlink" width="337.244813pt" height="297.190125pt" viewBox="0 0 337.244813 297.190125" xmlns="http://www.w3.org/2000/svg" version="1.1">
 <metadata>
  <rdf:RDF xmlns:dc="http://purl.org/dc/elements/1.1/" xmlns:cc="http://creativecommons.org/ns#" xmlns:rdf="http://www.w3.org/1999/02/22-rdf-syntax-ns#">
   <cc:Work>
    <dc:type rdf:resource="http://purl.org/dc/dcmitype/StillImage"/>
    <dc:date>2024-07-01T15:46:18.582214</dc:date>
    <dc:format>image/svg+xml</dc:format>
    <dc:creator>
     <cc:Agent>
      <dc:title>Matplotlib v3.8.4, https://matplotlib.org/</dc:title>
     </cc:Agent>
    </dc:creator>
   </cc:Work>
  </rdf:RDF>
 </metadata>
 <defs>
  <style type="text/css">*{stroke-linejoin: round; stroke-linecap: butt}</style>
 </defs>
 <g id="figure_1">
  <g id="patch_1">
   <path d="M 0 297.190125 
L 337.244813 297.190125 
L 337.244813 0 
L 0 0 
z
" style="fill: #ffffff"/>
  </g>
  <g id="axes_1">
   <g id="patch_2">
    <path d="M 63.932813 273.312 
L 330.044813 273.312 
L 330.044813 7.2 
L 63.932813 7.2 
z
" style="fill: #ffffff"/>
   </g>
   <g id="matplotlib.axis_1">
    <g id="xtick_1">
     <g id="line2d_1">
      <defs>
       <path id="m92056106da" d="M 0 0 
L 0 3.5 
" style="stroke: #000000; stroke-width: 0.8"/>
      </defs>
      <g>
       <use xlink:href="#m92056106da" x="96.188813" y="273.312" style="stroke: #000000; stroke-width: 0.8"/>
      </g>
     </g>
     <g id="text_1">
      <!-- −0.00010 -->
      <g transform="translate(71.322406 287.910437) scale(0.1 -0.1)">
       <defs>
        <path id="DejaVuSans-2212" d="M 678 2272 
L 4684 2272 
L 4684 1741 
L 678 1741 
L 678 2272 
z
" transform="scale(0.015625)"/>
        <path id="DejaVuSans-30" d="M 2034 4250 
Q 1547 4250 1301 3770 
Q 1056 3291 1056 2328 
Q 1056 1369 1301 889 
Q 1547 409 2034 409 
Q 2525 409 2770 889 
Q 3016 1369 3016 2328 
Q 3016 3291 2770 3770 
Q 2525 4250 2034 4250 
z
M 2034 4750 
Q 2819 4750 3233 4129 
Q 3647 3509 3647 2328 
Q 3647 1150 3233 529 
Q 2819 -91 2034 -91 
Q 1250 -91 836 529 
Q 422 1150 422 2328 
Q 422 3509 836 4129 
Q 1250 4750 2034 4750 
z
" transform="scale(0.015625)"/>
        <path id="DejaVuSans-2e" d="M 684 794 
L 1344 794 
L 1344 0 
L 684 0 
L 684 794 
z
" transform="scale(0.015625)"/>
        <path id="DejaVuSans-31" d="M 794 531 
L 1825 531 
L 1825 4091 
L 703 3866 
L 703 4441 
L 1819 4666 
L 2450 4666 
L 2450 531 
L 3481 531 
L 3481 0 
L 794 0 
L 794 531 
z
" transform="scale(0.015625)"/>
       </defs>
       <use xlink:href="#DejaVuSans-2212"/>
       <use xlink:href="#DejaVuSans-30" x="83.789062"/>
       <use xlink:href="#DejaVuSans-2e" x="147.412109"/>
       <use xlink:href="#DejaVuSans-30" x="179.199219"/>
       <use xlink:href="#DejaVuSans-30" x="242.822266"/>
       <use xlink:href="#DejaVuSans-30" x="306.445312"/>
       <use xlink:href="#DejaVuSans-31" x="370.068359"/>
       <use xlink:href="#DejaVuSans-30" x="433.691406"/>
      </g>
     </g>
    </g>
    <g id="xtick_2">
     <g id="line2d_2">
      <g>
       <use xlink:href="#m92056106da" x="146.588813" y="273.312" style="stroke: #000000; stroke-width: 0.8"/>
      </g>
     </g>
     <g id="text_2">
      <!-- −0.00005 -->
      <g transform="translate(121.722406 287.910437) scale(0.1 -0.1)">
       <defs>
        <path id="DejaVuSans-35" d="M 691 4666 
L 3169 4666 
L 3169 4134 
L 1269 4134 
L 1269 2991 
Q 1406 3038 1543 3061 
Q 1681 3084 1819 3084 
Q 2600 3084 3056 2656 
Q 3513 2228 3513 1497 
Q 3513 744 3044 326 
Q 2575 -91 1722 -91 
Q 1428 -91 1123 -41 
Q 819 9 494 109 
L 494 744 
Q 775 591 1075 516 
Q 1375 441 1709 441 
Q 2250 441 2565 725 
Q 2881 1009 2881 1497 
Q 2881 1984 2565 2268 
Q 2250 2553 1709 2553 
Q 1456 2553 1204 2497 
Q 953 2441 691 2322 
L 691 4666 
z
" transform="scale(0.015625)"/>
       </defs>
       <use xlink:href="#DejaVuSans-2212"/>
       <use xlink:href="#DejaVuSans-30" x="83.789062"/>
       <use xlink:href="#DejaVuSans-2e" x="147.412109"/>
       <use xlink:href="#DejaVuSans-30" x="179.199219"/>
       <use xlink:href="#DejaVuSans-30" x="242.822266"/>
       <use xlink:href="#DejaVuSans-30" x="306.445312"/>
       <use xlink:href="#DejaVuSans-30" x="370.068359"/>
       <use xlink:href="#DejaVuSans-35" x="433.691406"/>
      </g>
     </g>
    </g>
    <g id="xtick_3">
     <g id="line2d_3">
      <g>
       <use xlink:href="#m92056106da" x="196.988813" y="273.312" style="stroke: #000000; stroke-width: 0.8"/>
      </g>
     </g>
     <g id="text_3">
      <!-- 0.00000 -->
      <g transform="translate(176.31225 287.910437) scale(0.1 -0.1)">
       <use xlink:href="#DejaVuSans-30"/>
       <use xlink:href="#DejaVuSans-2e" x="63.623047"/>
       <use xlink:href="#DejaVuSans-30" x="95.410156"/>
       <use xlink:href="#DejaVuSans-30" x="159.033203"/>
       <use xlink:href="#DejaVuSans-30" x="222.65625"/>
       <use xlink:href="#DejaVuSans-30" x="286.279297"/>
       <use xlink:href="#DejaVuSans-30" x="349.902344"/>
      </g>
     </g>
    </g>
    <g id="xtick_4">
     <g id="line2d_4">
      <g>
       <use xlink:href="#m92056106da" x="247.388813" y="273.312" style="stroke: #000000; stroke-width: 0.8"/>
      </g>
     </g>
     <g id="text_4">
      <!-- 0.00005 -->
      <g transform="translate(226.71225 287.910437) scale(0.1 -0.1)">
       <use xlink:href="#DejaVuSans-30"/>
       <use xlink:href="#DejaVuSans-2e" x="63.623047"/>
       <use xlink:href="#DejaVuSans-30" x="95.410156"/>
       <use xlink:href="#DejaVuSans-30" x="159.033203"/>
       <use xlink:href="#DejaVuSans-30" x="222.65625"/>
       <use xlink:href="#DejaVuSans-30" x="286.279297"/>
       <use xlink:href="#DejaVuSans-35" x="349.902344"/>
      </g>
     </g>
    </g>
    <g id="xtick_5">
     <g id="line2d_5">
      <g>
       <use xlink:href="#m92056106da" x="297.788813" y="273.312" style="stroke: #000000; stroke-width: 0.8"/>
      </g>
     </g>
     <g id="text_5">
      <!-- 0.00010 -->
      <g transform="translate(277.11225 287.910437) scale(0.1 -0.1)">
       <use xlink:href="#DejaVuSans-30"/>
       <use xlink:href="#DejaVuSans-2e" x="63.623047"/>
       <use xlink:href="#DejaVuSans-30" x="95.410156"/>
       <use xlink:href="#DejaVuSans-30" x="159.033203"/>
       <use xlink:href="#DejaVuSans-30" x="222.65625"/>
       <use xlink:href="#DejaVuSans-31" x="286.279297"/>
       <use xlink:href="#DejaVuSans-30" x="349.902344"/>
      </g>
     </g>
    </g>
   </g>
   <g id="matplotlib.axis_2">
    <g id="ytick_1">
     <g id="line2d_6">
      <defs>
       <path id="me370e2669d" d="M 0 0 
L -3.5 0 
" style="stroke: #000000; stroke-width: 0.8"/>
      </defs>
      <g>
       <use xlink:href="#me370e2669d" x="63.932813" y="241.056" style="stroke: #000000; stroke-width: 0.8"/>
      </g>
     </g>
     <g id="text_6">
      <!-- −0.00010 -->
      <g transform="translate(7.2 244.855219) scale(0.1 -0.1)">
       <use xlink:href="#DejaVuSans-2212"/>
       <use xlink:href="#DejaVuSans-30" x="83.789062"/>
       <use xlink:href="#DejaVuSans-2e" x="147.412109"/>
       <use xlink:href="#DejaVuSans-30" x="179.199219"/>
       <use xlink:href="#DejaVuSans-30" x="242.822266"/>
       <use xlink:href="#DejaVuSans-30" x="306.445312"/>
       <use xlink:href="#DejaVuSans-31" x="370.068359"/>
       <use xlink:href="#DejaVuSans-30" x="433.691406"/>
      </g>
     </g>
    </g>
    <g id="ytick_2">
     <g id="line2d_7">
      <g>
       <use xlink:href="#me370e2669d" x="63.932813" y="190.656" style="stroke: #000000; stroke-width: 0.8"/>
      </g>
     </g>
     <g id="text_7">
      <!-- −0.00005 -->
      <g transform="translate(7.2 194.455219) scale(0.1 -0.1)">
       <use xlink:href="#DejaVuSans-2212"/>
       <use xlink:href="#DejaVuSans-30" x="83.789062"/>
       <use xlink:href="#DejaVuSans-2e" x="147.412109"/>
       <use xlink:href="#DejaVuSans-30" x="179.199219"/>
       <use xlink:href="#DejaVuSans-30" x="242.822266"/>
       <use xlink:href="#DejaVuSans-30" x="306.445312"/>
       <use xlink:href="#DejaVuSans-30" x="370.068359"/>
       <use xlink:href="#DejaVuSans-35" x="433.691406"/>
      </g>
     </g>
    </g>
    <g id="ytick_3">
     <g id="line2d_8">
      <g>
       <use xlink:href="#me370e2669d" x="63.932813" y="140.256" style="stroke: #000000; stroke-width: 0.8"/>
      </g>
     </g>
     <g id="text_8">
      <!-- 0.00000 -->
      <g transform="translate(15.579687 144.055219) scale(0.1 -0.1)">
       <use xlink:href="#DejaVuSans-30"/>
       <use xlink:href="#DejaVuSans-2e" x="63.623047"/>
       <use xlink:href="#DejaVuSans-30" x="95.410156"/>
       <use xlink:href="#DejaVuSans-30" x="159.033203"/>
       <use xlink:href="#DejaVuSans-30" x="222.65625"/>
       <use xlink:href="#DejaVuSans-30" x="286.279297"/>
       <use xlink:href="#DejaVuSans-30" x="349.902344"/>
      </g>
     </g>
    </g>
    <g id="ytick_4">
     <g id="line2d_9">
      <g>
       <use xlink:href="#me370e2669d" x="63.932813" y="89.856" style="stroke: #000000; stroke-width: 0.8"/>
      </g>
     </g>
     <g id="text_9">
      <!-- 0.00005 -->
      <g transform="translate(15.579687 93.655219) scale(0.1 -0.1)">
       <use xlink:href="#DejaVuSans-30"/>
       <use xlink:href="#DejaVuSans-2e" x="63.623047"/>
       <use xlink:href="#DejaVuSans-30" x="95.410156"/>
       <use xlink:href="#DejaVuSans-30" x="159.033203"/>
       <use xlink:href="#DejaVuSans-30" x="222.65625"/>
       <use xlink:href="#DejaVuSans-30" x="286.279297"/>
       <use xlink:href="#DejaVuSans-35" x="349.902344"/>
      </g>
     </g>
    </g>
    <g id="ytick_5">
     <g id="line2d_10">
      <g>
       <use xlink:href="#me370e2669d" x="63.932813" y="39.456" style="stroke: #000000; stroke-width: 0.8"/>
      </g>
     </g>
     <g id="text_10">
      <!-- 0.00010 -->
      <g transform="translate(15.579687 43.255219) scale(0.1 -0.1)">
       <use xlink:href="#DejaVuSans-30"/>
       <use xlink:href="#DejaVuSans-2e" x="63.623047"/>
       <use xlink:href="#DejaVuSans-30" x="95.410156"/>
       <use xlink:href="#DejaVuSans-30" x="159.033203"/>
       <use xlink:href="#DejaVuSans-30" x="222.65625"/>
       <use xlink:href="#DejaVuSans-31" x="286.279297"/>
       <use xlink:href="#DejaVuSans-30" x="349.902344"/>
      </g>
     </g>
    </g>
   </g>
   <g id="line2d_11">
    <path d="M 76.028813 140.255999 
L 76.145176 134.951554 
L 76.483623 129.776458 
L 77.043426 124.621875 
L 77.823619 119.495985 
L 78.822749 114.408309 
L 80.038882 109.368536 
L 81.469841 104.385556 
L 83.113205 99.467919 
L 84.965588 94.62576 
L 87.023846 89.867235 
L 89.284106 85.201319 
L 91.742258 80.636504 
L 94.393704 76.181315 
L 97.233606 71.843864 
L 100.256883 67.631931 
L 103.45773 63.5536 
L 106.830582 59.615967 
L 110.368907 55.826659 
L 114.066416 52.192399 
L 117.916335 48.71986 
L 121.911406 45.415584 
L 126.044613 42.285381 
L 130.307973 39.335302 
L 134.693987 36.570532 
L 139.19443 33.996267 
L 143.801075 31.617212 
L 148.505456 29.437745 
L 153.298864 27.461896 
L 158.172589 25.693256 
L 163.117438 24.135151 
L 168.124704 22.790325 
L 173.184949 21.661322 
L 178.288741 20.750231 
L 183.426885 20.05868 
L 188.589947 19.58794 
L 193.768491 19.338875 
L 198.953084 19.31195 
L 204.134048 19.507223 
L 209.301948 19.92434 
L 214.447108 20.562518 
L 219.560092 21.420572 
L 224.631708 22.496958 
L 229.652521 23.78968 
L 234.613337 25.296369 
L 239.504964 27.01423 
L 244.318452 28.940112 
L 249.045089 31.070536 
L 253.676168 33.401588 
L 258.20298 35.928883 
L 262.617299 38.647814 
L 266.911141 41.553469 
L 271.076524 44.640454 
L 275.105705 47.903021 
L 278.991428 51.33529 
L 282.726435 54.930847 
L 286.303951 58.683164 
L 289.717446 62.5854 
L 292.960629 66.630379 
L 296.027452 70.810557 
L 298.912351 75.118346 
L 301.610003 79.545803 
L 304.115571 84.085018 
L 306.424216 88.727231 
L 308.531825 93.464143 
L 310.434528 98.287068 
L 312.128695 103.186754 
L 313.611424 108.154785 
L 314.879812 113.181404 
L 315.931682 118.25792 
L 316.765097 123.375143 
L 317.378365 128.522401 
L 317.770517 133.690835 
L 317.940829 138.866298 
L 317.948813 140.255999 
L 317.948813 140.255999 
" clip-path="url(#pf725e0763b)" style="fill: none; stroke-dasharray: 5.55,2.4; stroke-dashoffset: 0; stroke: #000000; stroke-width: 1.5"/>
   </g>
   <g id="line2d_12">
    <path d="M 76.028813 140.256001 
L 76.145176 145.560446 
L 76.483623 150.735542 
L 77.043426 155.890125 
L 77.823619 161.016015 
L 78.822749 166.103691 
L 80.038882 171.143464 
L 81.469841 176.126444 
L 83.113205 181.044081 
L 84.965588 185.88624 
L 87.023846 190.644765 
L 89.284106 195.310681 
L 91.742258 199.875496 
L 94.393704 204.330685 
L 97.233606 208.668136 
L 100.256883 212.880069 
L 103.45773 216.9584 
L 106.830582 220.896033 
L 110.368907 224.685341 
L 114.066416 228.319601 
L 117.916335 231.79214 
L 121.911406 235.096416 
L 126.044613 238.226619 
L 130.307973 241.176698 
L 134.693987 243.941468 
L 139.19443 246.515733 
L 143.801075 248.894788 
L 148.505456 251.074255 
L 153.298864 253.050104 
L 158.172589 254.818744 
L 163.117438 256.376849 
L 168.124704 257.721675 
L 173.184949 258.850678 
L 178.288741 259.761769 
L 183.426885 260.45332 
L 188.589947 260.92406 
L 193.768491 261.173125 
L 198.953084 261.20005 
L 204.134048 261.004777 
L 209.301948 260.58766 
L 214.447108 259.949482 
L 219.560092 259.091428 
L 224.631708 258.015042 
L 229.652521 256.72232 
L 234.613337 255.215631 
L 239.504964 253.49777 
L 244.318452 251.571888 
L 249.045089 249.441464 
L 253.676168 247.110412 
L 258.20298 244.583117 
L 262.617299 241.864186 
L 266.911141 238.958531 
L 271.076524 235.871546 
L 275.105705 232.608979 
L 278.991428 229.17671 
L 282.726435 225.581153 
L 286.303951 221.828836 
L 289.717446 217.9266 
L 292.960629 213.881621 
L 296.027452 209.701443 
L 298.912351 205.393654 
L 301.610003 200.966197 
L 304.115571 196.426982 
L 306.424216 191.784769 
L 308.531825 187.047857 
L 310.434528 182.224932 
L 312.128695 177.325246 
L 313.611424 172.357215 
L 314.879812 167.330596 
L 315.931682 162.25408 
L 316.765097 157.136857 
L 317.378365 151.989599 
L 317.770517 146.821165 
L 317.940829 141.645702 
L 317.948813 140.256001 
L 317.948813 140.256001 
" clip-path="url(#pf725e0763b)" style="fill: none; stroke-dasharray: 5.55,2.4; stroke-dashoffset: 0; stroke: #000000; stroke-width: 1.5"/>
   </g>
   <g id="line2d_13">
    <path d="M 109.023449 91.034717 
L 119.474604 149.078184 
" clip-path="url(#pf725e0763b)" style="fill: none; stroke: #9678b4; stroke-linecap: square"/>
   </g>
   <g id="line2d_14">
    <path d="M 97.952648 159.0304 
L 109.023449 91.034717 
" clip-path="url(#pf725e0763b)" style="fill: none; stroke: #9678b4; stroke-linecap: square"/>
   </g>
   <g id="line2d_15">
    <path d="M 97.952648 159.0304 
L 119.474604 149.078184 
" clip-path="url(#pf725e0763b)" style="fill: none; stroke: #9678b4; stroke-linecap: square"/>
   </g>
   <g id="line2d_16">
    <path d="M 119.474604 149.078184 
L 142.317344 107.083589 
" clip-path="url(#pf725e0763b)" style="fill: none; stroke: #9678b4; stroke-linecap: square"/>
   </g>
   <g id="line2d_17">
    <path d="M 109.023449 91.034717 
L 142.317344 107.083589 
" clip-path="url(#pf725e0763b)" style="fill: none; stroke: #9678b4; stroke-linecap: square"/>
   </g>
   <g id="line2d_18">
    <path d="M 275.594115 77.154127 
L 208.060725 87.705018 
" clip-path="url(#pf725e0763b)" style="fill: none; stroke: #9678b4; stroke-linecap: square"/>
   </g>
   <g id="line2d_19">
    <path d="M 147.333027 52.535176 
L 275.594115 77.154127 
" clip-path="url(#pf725e0763b)" style="fill: none; stroke: #9678b4; stroke-linecap: square"/>
   </g>
   <g id="line2d_20">
    <path d="M 147.333027 52.535176 
L 208.060725 87.705018 
" clip-path="url(#pf725e0763b)" style="fill: none; stroke: #9678b4; stroke-linecap: square"/>
   </g>
   <g id="line2d_21">
    <path d="M 275.594115 77.154127 
L 257.499121 118.696368 
" clip-path="url(#pf725e0763b)" style="fill: none; stroke: #9678b4; stroke-linecap: square"/>
   </g>
   <g id="line2d_22">
    <path d="M 294.349223 114.148713 
L 257.499121 118.696368 
" clip-path="url(#pf725e0763b)" style="fill: none; stroke: #9678b4; stroke-linecap: square"/>
   </g>
   <g id="line2d_23">
    <path d="M 294.349223 114.148713 
L 275.594115 77.154127 
" clip-path="url(#pf725e0763b)" style="fill: none; stroke: #9678b4; stroke-linecap: square"/>
   </g>
   <g id="line2d_24">
    <path d="M 149.827149 120.943312 
L 208.060725 87.705018 
" clip-path="url(#pf725e0763b)" style="fill: none; stroke: #9678b4; stroke-linecap: square"/>
   </g>
   <g id="line2d_25">
    <path d="M 149.827149 120.943312 
L 168.995719 147.619315 
" clip-path="url(#pf725e0763b)" style="fill: none; stroke: #9678b4; stroke-linecap: square"/>
   </g>
   <g id="line2d_26">
    <path d="M 168.995719 147.619315 
L 208.060725 87.705018 
" clip-path="url(#pf725e0763b)" style="fill: none; stroke: #9678b4; stroke-linecap: square"/>
   </g>
   <g id="line2d_27">
    <path d="M 142.317344 107.083589 
L 208.060725 87.705018 
" clip-path="url(#pf725e0763b)" style="fill: none; stroke: #9678b4; stroke-linecap: square"/>
   </g>
   <g id="line2d_28">
    <path d="M 149.827149 120.943312 
L 142.317344 107.083589 
" clip-path="url(#pf725e0763b)" style="fill: none; stroke: #9678b4; stroke-linecap: square"/>
   </g>
   <g id="line2d_29">
    <path d="M 149.827149 120.943312 
L 119.474604 149.078184 
" clip-path="url(#pf725e0763b)" style="fill: none; stroke: #9678b4; stroke-linecap: square"/>
   </g>
   <g id="line2d_30">
    <path d="M 119.474604 149.078184 
L 168.995719 147.619315 
" clip-path="url(#pf725e0763b)" style="fill: none; stroke: #9678b4; stroke-linecap: square"/>
   </g>
   <g id="line2d_31">
    <path d="M 153.343952 66.886335 
L 208.060725 87.705018 
" clip-path="url(#pf725e0763b)" style="fill: none; stroke: #9678b4; stroke-linecap: square"/>
   </g>
   <g id="line2d_32">
    <path d="M 147.333027 52.535176 
L 153.343952 66.886335 
" clip-path="url(#pf725e0763b)" style="fill: none; stroke: #9678b4; stroke-linecap: square"/>
   </g>
   <g id="line2d_33">
    <path d="M 153.343952 66.886335 
L 142.317344 107.083589 
" clip-path="url(#pf725e0763b)" style="fill: none; stroke: #9678b4; stroke-linecap: square"/>
   </g>
   <g id="line2d_34">
    <path d="M 275.798614 203.102282 
L 240.610449 231.128399 
" clip-path="url(#pf725e0763b)" style="fill: none; stroke: #9678b4; stroke-linecap: square"/>
   </g>
   <g id="line2d_35">
    <path d="M 275.798614 203.102282 
L 259.060745 201.346931 
" clip-path="url(#pf725e0763b)" style="fill: none; stroke: #9678b4; stroke-linecap: square"/>
   </g>
   <g id="line2d_36">
    <path d="M 240.610449 231.128399 
L 259.060745 201.346931 
" clip-path="url(#pf725e0763b)" style="fill: none; stroke: #9678b4; stroke-linecap: square"/>
   </g>
   <g id="line2d_37">
    <path d="M 137.346584 217.501555 
L 175.423351 222.385238 
" clip-path="url(#pf725e0763b)" style="fill: none; stroke: #9678b4; stroke-linecap: square"/>
   </g>
   <g id="line2d_38">
    <path d="M 137.346584 217.501555 
L 177.358742 238.578901 
" clip-path="url(#pf725e0763b)" style="fill: none; stroke: #9678b4; stroke-linecap: square"/>
   </g>
   <g id="line2d_39">
    <path d="M 177.358742 238.578901 
L 175.423351 222.385238 
" clip-path="url(#pf725e0763b)" style="fill: none; stroke: #9678b4; stroke-linecap: square"/>
   </g>
   <g id="line2d_40">
    <path d="M 191.731504 201.660345 
L 175.423351 222.385238 
" clip-path="url(#pf725e0763b)" style="fill: none; stroke: #9678b4; stroke-linecap: square"/>
   </g>
   <g id="line2d_41">
    <path d="M 137.346584 217.501555 
L 191.731504 201.660345 
" clip-path="url(#pf725e0763b)" style="fill: none; stroke: #9678b4; stroke-linecap: square"/>
   </g>
   <g id="line2d_42">
    <path d="M 275.798614 203.102282 
L 278.343868 163.530338 
" clip-path="url(#pf725e0763b)" style="fill: none; stroke: #9678b4; stroke-linecap: square"/>
   </g>
   <g id="line2d_43">
    <path d="M 259.060745 201.346931 
L 278.343868 163.530338 
" clip-path="url(#pf725e0763b)" style="fill: none; stroke: #9678b4; stroke-linecap: square"/>
   </g>
   <g id="line2d_44">
    <path d="M 275.798614 203.102282 
L 294.349223 114.148713 
" clip-path="url(#pf725e0763b)" style="fill: none; stroke: #9678b4; stroke-linecap: square"/>
   </g>
   <g id="line2d_45">
    <path d="M 294.349223 114.148713 
L 278.343868 163.530338 
" clip-path="url(#pf725e0763b)" style="fill: none; stroke: #9678b4; stroke-linecap: square"/>
   </g>
   <g id="line2d_46">
    <path d="M 275.594115 77.154127 
L 242.025837 95.318374 
" clip-path="url(#pf725e0763b)" style="fill: none; stroke: #9678b4; stroke-linecap: square"/>
   </g>
   <g id="line2d_47">
    <path d="M 242.025837 95.318374 
L 208.060725 87.705018 
" clip-path="url(#pf725e0763b)" style="fill: none; stroke: #9678b4; stroke-linecap: square"/>
   </g>
   <g id="line2d_48">
    <path d="M 257.499121 118.696368 
L 242.025837 95.318374 
" clip-path="url(#pf725e0763b)" style="fill: none; stroke: #9678b4; stroke-linecap: square"/>
   </g>
   <g id="line2d_49">
    <path d="M 257.499121 118.696368 
L 208.060725 87.705018 
" clip-path="url(#pf725e0763b)" style="fill: none; stroke: #9678b4; stroke-linecap: square"/>
   </g>
   <g id="line2d_50">
    <path d="M 256.664128 143.926036 
L 208.060725 87.705018 
" clip-path="url(#pf725e0763b)" style="fill: none; stroke: #9678b4; stroke-linecap: square"/>
   </g>
   <g id="line2d_51">
    <path d="M 256.664128 143.926036 
L 257.499121 118.696368 
" clip-path="url(#pf725e0763b)" style="fill: none; stroke: #9678b4; stroke-linecap: square"/>
   </g>
   <g id="line2d_52">
    <path d="M 256.664128 143.926036 
L 278.343868 163.530338 
" clip-path="url(#pf725e0763b)" style="fill: none; stroke: #9678b4; stroke-linecap: square"/>
   </g>
   <g id="line2d_53">
    <path d="M 256.664128 143.926036 
L 259.060745 201.346931 
" clip-path="url(#pf725e0763b)" style="fill: none; stroke: #9678b4; stroke-linecap: square"/>
   </g>
   <g id="line2d_54">
    <path d="M 294.349223 114.148713 
L 256.664128 143.926036 
" clip-path="url(#pf725e0763b)" style="fill: none; stroke: #9678b4; stroke-linecap: square"/>
   </g>
   <g id="line2d_55">
    <path d="M 109.023449 91.034717 
L 124.629162 89.912774 
" clip-path="url(#pf725e0763b)" style="fill: none; stroke: #9678b4; stroke-linecap: square"/>
   </g>
   <g id="line2d_56">
    <path d="M 142.317344 107.083589 
L 124.629162 89.912774 
" clip-path="url(#pf725e0763b)" style="fill: none; stroke: #9678b4; stroke-linecap: square"/>
   </g>
   <g id="line2d_57">
    <path d="M 153.343952 66.886335 
L 124.629162 89.912774 
" clip-path="url(#pf725e0763b)" style="fill: none; stroke: #9678b4; stroke-linecap: square"/>
   </g>
   <g id="line2d_58">
    <path d="M 147.333027 52.535176 
L 124.629162 89.912774 
" clip-path="url(#pf725e0763b)" style="fill: none; stroke: #9678b4; stroke-linecap: square"/>
   </g>
   <g id="line2d_59">
    <path d="M 147.333027 52.535176 
L 109.023449 91.034717 
" clip-path="url(#pf725e0763b)" style="fill: none; stroke: #9678b4; stroke-linecap: square"/>
   </g>
   <g id="line2d_60">
    <path d="M 124.82018 210.209359 
L 121.882825 180.847186 
" clip-path="url(#pf725e0763b)" style="fill: none; stroke: #9678b4; stroke-linecap: square"/>
   </g>
   <g id="line2d_61">
    <path d="M 113.63763 196.941274 
L 121.882825 180.847186 
" clip-path="url(#pf725e0763b)" style="fill: none; stroke: #9678b4; stroke-linecap: square"/>
   </g>
   <g id="line2d_62">
    <path d="M 113.63763 196.941274 
L 124.82018 210.209359 
" clip-path="url(#pf725e0763b)" style="fill: none; stroke: #9678b4; stroke-linecap: square"/>
   </g>
   <g id="line2d_63">
    <path d="M 119.474604 149.078184 
L 121.882825 180.847186 
" clip-path="url(#pf725e0763b)" style="fill: none; stroke: #9678b4; stroke-linecap: square"/>
   </g>
   <g id="line2d_64">
    <path d="M 121.882825 180.847186 
L 168.995719 147.619315 
" clip-path="url(#pf725e0763b)" style="fill: none; stroke: #9678b4; stroke-linecap: square"/>
   </g>
   <g id="line2d_65">
    <path d="M 124.82018 210.209359 
L 137.346584 217.501555 
" clip-path="url(#pf725e0763b)" style="fill: none; stroke: #9678b4; stroke-linecap: square"/>
   </g>
   <g id="line2d_66">
    <path d="M 121.882825 180.847186 
L 137.346584 217.501555 
" clip-path="url(#pf725e0763b)" style="fill: none; stroke: #9678b4; stroke-linecap: square"/>
   </g>
   <g id="line2d_67">
    <path d="M 97.952648 159.0304 
L 121.882825 180.847186 
" clip-path="url(#pf725e0763b)" style="fill: none; stroke: #9678b4; stroke-linecap: square"/>
   </g>
   <g id="line2d_68">
    <path d="M 113.63763 196.941274 
L 97.952648 159.0304 
" clip-path="url(#pf725e0763b)" style="fill: none; stroke: #9678b4; stroke-linecap: square"/>
   </g>
   <g id="line2d_69">
    <path d="M 121.882825 180.847186 
L 191.731504 201.660345 
" clip-path="url(#pf725e0763b)" style="fill: none; stroke: #9678b4; stroke-linecap: square"/>
   </g>
   <g id="line2d_70">
    <path d="M 191.731504 201.660345 
L 168.995719 147.619315 
" clip-path="url(#pf725e0763b)" style="fill: none; stroke: #9678b4; stroke-linecap: square"/>
   </g>
   <g id="line2d_71">
    <path d="M 240.610449 231.128399 
L 235.332091 216.981572 
" clip-path="url(#pf725e0763b)" style="fill: none; stroke: #9678b4; stroke-linecap: square"/>
   </g>
   <g id="line2d_72">
    <path d="M 259.060745 201.346931 
L 235.332091 216.981572 
" clip-path="url(#pf725e0763b)" style="fill: none; stroke: #9678b4; stroke-linecap: square"/>
   </g>
   <g id="line2d_73">
    <path d="M 189.672336 222.520225 
L 175.423351 222.385238 
" clip-path="url(#pf725e0763b)" style="fill: none; stroke: #9678b4; stroke-linecap: square"/>
   </g>
   <g id="line2d_74">
    <path d="M 189.672336 222.520225 
L 177.358742 238.578901 
" clip-path="url(#pf725e0763b)" style="fill: none; stroke: #9678b4; stroke-linecap: square"/>
   </g>
   <g id="line2d_75">
    <path d="M 189.672336 222.520225 
L 191.731504 201.660345 
" clip-path="url(#pf725e0763b)" style="fill: none; stroke: #9678b4; stroke-linecap: square"/>
   </g>
   <g id="line2d_76">
    <path d="M 240.610449 231.128399 
L 189.672336 222.520225 
" clip-path="url(#pf725e0763b)" style="fill: none; stroke: #9678b4; stroke-linecap: square"/>
   </g>
   <g id="line2d_77">
    <path d="M 240.610449 231.128399 
L 177.358742 238.578901 
" clip-path="url(#pf725e0763b)" style="fill: none; stroke: #9678b4; stroke-linecap: square"/>
   </g>
   <g id="line2d_78">
    <path d="M 189.672336 222.520225 
L 235.332091 216.981572 
" clip-path="url(#pf725e0763b)" style="fill: none; stroke: #9678b4; stroke-linecap: square"/>
   </g>
   <g id="line2d_79">
    <path d="M 256.664128 143.926036 
L 218.562562 186.208781 
" clip-path="url(#pf725e0763b)" style="fill: none; stroke: #9678b4; stroke-linecap: square"/>
   </g>
   <g id="line2d_80">
    <path d="M 218.562562 186.208781 
L 259.060745 201.346931 
" clip-path="url(#pf725e0763b)" style="fill: none; stroke: #9678b4; stroke-linecap: square"/>
   </g>
   <g id="line2d_81">
    <path d="M 218.562562 186.208781 
L 191.731504 201.660345 
" clip-path="url(#pf725e0763b)" style="fill: none; stroke: #9678b4; stroke-linecap: square"/>
   </g>
   <g id="line2d_82">
    <path d="M 218.562562 186.208781 
L 168.995719 147.619315 
" clip-path="url(#pf725e0763b)" style="fill: none; stroke: #9678b4; stroke-linecap: square"/>
   </g>
   <g id="line2d_83">
    <path d="M 235.332091 216.981572 
L 218.771294 204.309763 
" clip-path="url(#pf725e0763b)" style="fill: none; stroke: #9678b4; stroke-linecap: square"/>
   </g>
   <g id="line2d_84">
    <path d="M 259.060745 201.346931 
L 218.771294 204.309763 
" clip-path="url(#pf725e0763b)" style="fill: none; stroke: #9678b4; stroke-linecap: square"/>
   </g>
   <g id="line2d_85">
    <path d="M 218.562562 186.208781 
L 218.771294 204.309763 
" clip-path="url(#pf725e0763b)" style="fill: none; stroke: #9678b4; stroke-linecap: square"/>
   </g>
   <g id="line2d_86">
    <path d="M 218.771294 204.309763 
L 191.731504 201.660345 
" clip-path="url(#pf725e0763b)" style="fill: none; stroke: #9678b4; stroke-linecap: square"/>
   </g>
   <g id="line2d_87">
    <path d="M 189.672336 222.520225 
L 218.771294 204.309763 
" clip-path="url(#pf725e0763b)" style="fill: none; stroke: #9678b4; stroke-linecap: square"/>
   </g>
   <g id="line2d_88">
    <path d="M 275.798614 203.102282 
L 291.560574 215.671539 
" clip-path="url(#pf725e0763b)" style="fill: none; stroke: #85c27f; stroke-linecap: square"/>
   </g>
   <g id="line2d_89">
    <path d="M 147.333027 52.535176 
L 137.40187 34.991011 
" clip-path="url(#pf725e0763b)" style="fill: none; stroke: #85c27f; stroke-linecap: square"/>
   </g>
   <g id="line2d_90">
    <path d="M 240.610449 231.128399 
L 249.334776 249.302878 
" clip-path="url(#pf725e0763b)" style="fill: none; stroke: #85c27f; stroke-linecap: square"/>
   </g>
   <g id="line2d_91">
    <path d="M 294.349223 114.148713 
L 313.821305 108.927255 
" clip-path="url(#pf725e0763b)" style="fill: none; stroke: #85c27f; stroke-linecap: square"/>
   </g>
   <g id="line2d_92">
    <path d="M 275.594115 77.154127 
L 291.315176 64.533752 
" clip-path="url(#pf725e0763b)" style="fill: none; stroke: #85c27f; stroke-linecap: square"/>
   </g>
   <g id="line2d_93">
    <path d="M 113.63763 196.941274 
L 96.967393 208.278329 
" clip-path="url(#pf725e0763b)" style="fill: none; stroke: #85c27f; stroke-linecap: square"/>
   </g>
   <g id="line2d_94">
    <path d="M 97.952648 159.0304 
L 78.145415 162.78528 
" clip-path="url(#pf725e0763b)" style="fill: none; stroke: #85c27f; stroke-linecap: square"/>
   </g>
   <g id="line2d_95">
    <path d="M 109.023449 91.034717 
L 91.430376 81.19046 
" clip-path="url(#pf725e0763b)" style="fill: none; stroke: #85c27f; stroke-linecap: square"/>
   </g>
   <g id="line2d_96">
    <path d="M 256.664128 143.926036 
L 221.596764 145.403348 
" clip-path="url(#pf725e0763b)" style="fill: none; stroke: #9678b4; stroke-linecap: square"/>
   </g>
   <g id="line2d_97">
    <path d="M 221.596764 145.403348 
L 204.063083 146.142003 
" clip-path="url(#pf725e0763b)" style="fill: none; stroke: #ff0000; stroke-linecap: square"/>
   </g>
   <g id="line2d_98">
    <path d="M 204.063083 146.142003 
L 168.995719 147.619315 
" clip-path="url(#pf725e0763b)" style="fill: none; stroke: #9678b4; stroke-linecap: square"/>
   </g>
   <g id="line2d_99">
    <defs>
     <path id="mb23940b80f" d="M 0 3 
C 0.795609 3 1.55874 2.683901 2.12132 2.12132 
C 2.683901 1.55874 3 0.795609 3 0 
C 3 -0.795609 2.683901 -1.55874 2.12132 -2.12132 
C 1.55874 -2.683901 0.795609 -3 0 -3 
C -0.795609 -3 -1.55874 -2.683901 -2.12132 -2.12132 
C -2.683901 -1.55874 -3 -0.795609 -3 0 
C -3 0.795609 -2.683901 1.55874 -2.12132 2.12132 
C -1.55874 2.683901 -0.795609 3 0 3 
z
" style="stroke: #9678b4"/>
    </defs>
    <g clip-path="url(#pf725e0763b)">
     <use xlink:href="#mb23940b80f" x="275.798614" y="203.102282" style="fill: #9678b4; stroke: #9678b4"/>
    </g>
   </g>
   <g id="line2d_100">
    <g clip-path="url(#pf725e0763b)">
     <use xlink:href="#mb23940b80f" x="147.333027" y="52.535176" style="fill: #9678b4; stroke: #9678b4"/>
    </g>
   </g>
   <g id="line2d_101">
    <g clip-path="url(#pf725e0763b)">
     <use xlink:href="#mb23940b80f" x="240.610449" y="231.128399" style="fill: #9678b4; stroke: #9678b4"/>
    </g>
   </g>
   <g id="line2d_102">
    <g clip-path="url(#pf725e0763b)">
     <use xlink:href="#mb23940b80f" x="294.349223" y="114.148713" style="fill: #9678b4; stroke: #9678b4"/>
    </g>
   </g>
   <g id="line2d_103">
    <g clip-path="url(#pf725e0763b)">
     <use xlink:href="#mb23940b80f" x="275.594115" y="77.154127" style="fill: #9678b4; stroke: #9678b4"/>
    </g>
   </g>
   <g id="line2d_104">
    <g clip-path="url(#pf725e0763b)">
     <use xlink:href="#mb23940b80f" x="113.63763" y="196.941274" style="fill: #9678b4; stroke: #9678b4"/>
    </g>
   </g>
   <g id="line2d_105">
    <g clip-path="url(#pf725e0763b)">
     <use xlink:href="#mb23940b80f" x="97.952648" y="159.0304" style="fill: #9678b4; stroke: #9678b4"/>
    </g>
   </g>
   <g id="line2d_106">
    <g clip-path="url(#pf725e0763b)">
     <use xlink:href="#mb23940b80f" x="109.023449" y="91.034717" style="fill: #9678b4; stroke: #9678b4"/>
    </g>
   </g>
   <g id="line2d_107">
    <g clip-path="url(#pf725e0763b)">
     <use xlink:href="#mb23940b80f" x="153.343952" y="66.886335" style="fill: #9678b4; stroke: #9678b4"/>
    </g>
   </g>
   <g id="line2d_108">
    <g clip-path="url(#pf725e0763b)">
     <use xlink:href="#mb23940b80f" x="124.82018" y="210.209359" style="fill: #9678b4; stroke: #9678b4"/>
    </g>
   </g>
   <g id="line2d_109">
    <g clip-path="url(#pf725e0763b)">
     <use xlink:href="#mb23940b80f" x="149.827149" y="120.943312" style="fill: #9678b4; stroke: #9678b4"/>
    </g>
   </g>
   <g id="line2d_110">
    <g clip-path="url(#pf725e0763b)">
     <use xlink:href="#mb23940b80f" x="189.672336" y="222.520225" style="fill: #9678b4; stroke: #9678b4"/>
    </g>
   </g>
   <g id="line2d_111">
    <g clip-path="url(#pf725e0763b)">
     <use xlink:href="#mb23940b80f" x="119.474604" y="149.078184" style="fill: #9678b4; stroke: #9678b4"/>
    </g>
   </g>
   <g id="line2d_112">
    <g clip-path="url(#pf725e0763b)">
     <use xlink:href="#mb23940b80f" x="121.882825" y="180.847186" style="fill: #9678b4; stroke: #9678b4"/>
    </g>
   </g>
   <g id="line2d_113">
    <g clip-path="url(#pf725e0763b)">
     <use xlink:href="#mb23940b80f" x="137.346584" y="217.501555" style="fill: #9678b4; stroke: #9678b4"/>
    </g>
   </g>
   <g id="line2d_114">
    <g clip-path="url(#pf725e0763b)">
     <use xlink:href="#mb23940b80f" x="256.664128" y="143.926036" style="fill: #9678b4; stroke: #9678b4"/>
    </g>
   </g>
   <g id="line2d_115">
    <g clip-path="url(#pf725e0763b)">
     <use xlink:href="#mb23940b80f" x="218.562562" y="186.208781" style="fill: #9678b4; stroke: #9678b4"/>
    </g>
   </g>
   <g id="line2d_116">
    <g clip-path="url(#pf725e0763b)">
     <use xlink:href="#mb23940b80f" x="142.317344" y="107.083589" style="fill: #9678b4; stroke: #9678b4"/>
    </g>
   </g>
   <g id="line2d_117">
    <g clip-path="url(#pf725e0763b)">
     <use xlink:href="#mb23940b80f" x="259.060745" y="201.346931" style="fill: #9678b4; stroke: #9678b4"/>
    </g>
   </g>
   <g id="line2d_118">
    <g clip-path="url(#pf725e0763b)">
     <use xlink:href="#mb23940b80f" x="235.332091" y="216.981572" style="fill: #9678b4; stroke: #9678b4"/>
    </g>
   </g>
   <g id="line2d_119">
    <g clip-path="url(#pf725e0763b)">
     <use xlink:href="#mb23940b80f" x="257.499121" y="118.696368" style="fill: #9678b4; stroke: #9678b4"/>
    </g>
   </g>
   <g id="line2d_120">
    <g clip-path="url(#pf725e0763b)">
     <use xlink:href="#mb23940b80f" x="177.358742" y="238.578901" style="fill: #9678b4; stroke: #9678b4"/>
    </g>
   </g>
   <g id="line2d_121">
    <g clip-path="url(#pf725e0763b)">
     <use xlink:href="#mb23940b80f" x="218.771294" y="204.309763" style="fill: #9678b4; stroke: #9678b4"/>
    </g>
   </g>
   <g id="line2d_122">
    <g clip-path="url(#pf725e0763b)">
     <use xlink:href="#mb23940b80f" x="191.731504" y="201.660345" style="fill: #9678b4; stroke: #9678b4"/>
    </g>
   </g>
   <g id="line2d_123">
    <g clip-path="url(#pf725e0763b)">
     <use xlink:href="#mb23940b80f" x="175.423351" y="222.385238" style="fill: #9678b4; stroke: #9678b4"/>
    </g>
   </g>
   <g id="line2d_124">
    <g clip-path="url(#pf725e0763b)">
     <use xlink:href="#mb23940b80f" x="168.995719" y="147.619315" style="fill: #9678b4; stroke: #9678b4"/>
    </g>
   </g>
   <g id="line2d_125">
    <g clip-path="url(#pf725e0763b)">
     <use xlink:href="#mb23940b80f" x="242.025837" y="95.318374" style="fill: #9678b4; stroke: #9678b4"/>
    </g>
   </g>
   <g id="line2d_126">
    <g clip-path="url(#pf725e0763b)">
     <use xlink:href="#mb23940b80f" x="278.343868" y="163.530338" style="fill: #9678b4; stroke: #9678b4"/>
    </g>
   </g>
   <g id="line2d_127">
    <g clip-path="url(#pf725e0763b)">
     <use xlink:href="#mb23940b80f" x="124.629162" y="89.912774" style="fill: #9678b4; stroke: #9678b4"/>
    </g>
   </g>
   <g id="line2d_128">
    <g clip-path="url(#pf725e0763b)">
     <use xlink:href="#mb23940b80f" x="208.060725" y="87.705018" style="fill: #9678b4; stroke: #9678b4"/>
    </g>
   </g>
   <g id="line2d_129">
    <defs>
     <path id="mc16a277982" d="M 0 3 
C 0.795609 3 1.55874 2.683901 2.12132 2.12132 
C 2.683901 1.55874 3 0.795609 3 0 
C 3 -0.795609 2.683901 -1.55874 2.12132 -2.12132 
C 1.55874 -2.683901 0.795609 -3 0 -3 
C -0.795609 -3 -1.55874 -2.683901 -2.12132 -2.12132 
C -2.683901 -1.55874 -3 -0.795609 -3 0 
C -3 0.795609 -2.683901 1.55874 -2.12132 2.12132 
C -1.55874 2.683901 -0.795609 3 0 3 
z
" style="stroke: #85c27f"/>
    </defs>
    <g clip-path="url(#pf725e0763b)">
     <use xlink:href="#mc16a277982" x="291.560574" y="215.671539" style="fill: #85c27f; stroke: #85c27f"/>
    </g>
   </g>
   <g id="line2d_130">
    <g clip-path="url(#pf725e0763b)">
     <use xlink:href="#mc16a277982" x="137.40187" y="34.991011" style="fill: #85c27f; stroke: #85c27f"/>
    </g>
   </g>
   <g id="line2d_131">
    <g clip-path="url(#pf725e0763b)">
     <use xlink:href="#mc16a277982" x="249.334776" y="249.302878" style="fill: #85c27f; stroke: #85c27f"/>
    </g>
   </g>
   <g id="line2d_132">
    <g clip-path="url(#pf725e0763b)">
     <use xlink:href="#mc16a277982" x="313.821305" y="108.927255" style="fill: #85c27f; stroke: #85c27f"/>
    </g>
   </g>
   <g id="line2d_133">
    <g clip-path="url(#pf725e0763b)">
     <use xlink:href="#mc16a277982" x="291.315176" y="64.533752" style="fill: #85c27f; stroke: #85c27f"/>
    </g>
   </g>
   <g id="line2d_134">
    <g clip-path="url(#pf725e0763b)">
     <use xlink:href="#mc16a277982" x="96.967393" y="208.278329" style="fill: #85c27f; stroke: #85c27f"/>
    </g>
   </g>
   <g id="line2d_135">
    <g clip-path="url(#pf725e0763b)">
     <use xlink:href="#mc16a277982" x="78.145415" y="162.78528" style="fill: #85c27f; stroke: #85c27f"/>
    </g>
   </g>
   <g id="line2d_136">
    <g clip-path="url(#pf725e0763b)">
     <use xlink:href="#mc16a277982" x="91.430376" y="81.19046" style="fill: #85c27f; stroke: #85c27f"/>
    </g>
   </g>
   <g id="line2d_137">
    <defs>
     <path id="m8240339c2f" d="M 0 3 
C 0.795609 3 1.55874 2.683901 2.12132 2.12132 
C 2.683901 1.55874 3 0.795609 3 0 
C 3 -0.795609 2.683901 -1.55874 2.12132 -2.12132 
C 1.55874 -2.683901 0.795609 -3 0 -3 
C -0.795609 -3 -1.55874 -2.683901 -2.12132 -2.12132 
C -2.683901 -1.55874 -3 -0.795609 -3 0 
C -3 0.795609 -2.683901 1.55874 -2.12132 2.12132 
C -1.55874 2.683901 -0.795609 3 0 3 
z
" style="stroke: #ff0000"/>
    </defs>
    <g clip-path="url(#pf725e0763b)">
     <use xlink:href="#m8240339c2f" x="221.596764" y="145.403348" style="fill: #ff0000; stroke: #ff0000"/>
    </g>
   </g>
   <g id="line2d_138">
    <g clip-path="url(#pf725e0763b)">
     <use xlink:href="#m8240339c2f" x="204.063083" y="146.142003" style="fill: #ff0000; stroke: #ff0000"/>
    </g>
   </g>
   <g id="patch_3">
    <path d="M 63.932813 273.312 
L 63.932813 7.2 
" style="fill: none; stroke: #000000; stroke-width: 0.8; stroke-linejoin: miter; stroke-linecap: square"/>
   </g>
   <g id="patch_4">
    <path d="M 330.044813 273.312 
L 330.044813 7.2 
" style="fill: none; stroke: #000000; stroke-width: 0.8; stroke-linejoin: miter; stroke-linecap: square"/>
   </g>
   <g id="patch_5">
    <path d="M 63.932813 273.312 
L 330.044813 273.312 
" style="fill: none; stroke: #000000; stroke-width: 0.8; stroke-linejoin: miter; stroke-linecap: square"/>
   </g>
   <g id="patch_6">
    <path d="M 63.932813 7.2 
L 330.044813 7.2 
" style="fill: none; stroke: #000000; stroke-width: 0.8; stroke-linejoin: miter; stroke-linecap: square"/>
   </g>
  </g>
 </g>
 <defs>
  <clipPath id="pf725e0763b">
   <rect x="63.932813" y="7.2" width="266.112" height="266.112"/>
  </clipPath>
 </defs>
</svg>
